<mxfile host="app.diagrams.net" agent="Mozilla/5.0 (Windows NT 10.0; Win64; x64) AppleWebKit/537.36 (KHTML, like Gecko) Chrome/130.0.0.0 Safari/537.36" version="24.8.2">
  <diagram name="Page-1" id="-QGdHHPTFc9Bw2BwuJLz">
    <mxGraphModel dx="683" dy="351" grid="0" gridSize="10" guides="1" tooltips="1" connect="1" arrows="1" fold="1" page="1" pageScale="1" pageWidth="850" pageHeight="1100" math="0" shadow="0">
      <root>
        <mxCell id="0" />
        <mxCell id="1" parent="0" />
        <mxCell id="uznSG9Nx5VCiNAI1-h-n-1" value="Card" style="swimlane;fontStyle=1;align=center;verticalAlign=top;childLayout=stackLayout;horizontal=1;startSize=26;horizontalStack=0;resizeParent=1;resizeParentMax=0;resizeLast=0;collapsible=1;marginBottom=0;whiteSpace=wrap;html=1;" vertex="1" parent="1">
          <mxGeometry x="180" y="364" width="160" height="88" as="geometry" />
        </mxCell>
        <mxCell id="uznSG9Nx5VCiNAI1-h-n-3" value="" style="line;strokeWidth=1;fillColor=none;align=left;verticalAlign=middle;spacingTop=-1;spacingLeft=3;spacingRight=3;rotatable=0;labelPosition=right;points=[];portConstraint=eastwest;strokeColor=inherit;" vertex="1" parent="uznSG9Nx5VCiNAI1-h-n-1">
          <mxGeometry y="26" width="160" height="38" as="geometry" />
        </mxCell>
        <mxCell id="uznSG9Nx5VCiNAI1-h-n-4" value="&lt;div&gt;+ toString(): String&lt;/div&gt;" style="text;strokeColor=none;fillColor=none;align=left;verticalAlign=top;spacingLeft=4;spacingRight=4;overflow=hidden;rotatable=0;points=[[0,0.5],[1,0.5]];portConstraint=eastwest;whiteSpace=wrap;html=1;" vertex="1" parent="uznSG9Nx5VCiNAI1-h-n-1">
          <mxGeometry y="64" width="160" height="24" as="geometry" />
        </mxCell>
        <mxCell id="uznSG9Nx5VCiNAI1-h-n-9" value="GroupOfCards" style="swimlane;fontStyle=1;align=center;verticalAlign=top;childLayout=stackLayout;horizontal=1;startSize=26;horizontalStack=0;resizeParent=1;resizeParentMax=0;resizeLast=0;collapsible=1;marginBottom=0;whiteSpace=wrap;html=1;" vertex="1" parent="1">
          <mxGeometry x="180" y="135" width="160" height="156" as="geometry" />
        </mxCell>
        <mxCell id="uznSG9Nx5VCiNAI1-h-n-10" value="- cards: List&amp;lt;card&amp;gt;&lt;div&gt;- size: int&lt;/div&gt;" style="text;strokeColor=none;fillColor=none;align=left;verticalAlign=top;spacingLeft=4;spacingRight=4;overflow=hidden;rotatable=0;points=[[0,0.5],[1,0.5]];portConstraint=eastwest;whiteSpace=wrap;html=1;" vertex="1" parent="uznSG9Nx5VCiNAI1-h-n-9">
          <mxGeometry y="26" width="160" height="41" as="geometry" />
        </mxCell>
        <mxCell id="uznSG9Nx5VCiNAI1-h-n-11" value="" style="line;strokeWidth=1;fillColor=none;align=left;verticalAlign=middle;spacingTop=-1;spacingLeft=3;spacingRight=3;rotatable=0;labelPosition=right;points=[];portConstraint=eastwest;strokeColor=inherit;" vertex="1" parent="uznSG9Nx5VCiNAI1-h-n-9">
          <mxGeometry y="67" width="160" height="8" as="geometry" />
        </mxCell>
        <mxCell id="uznSG9Nx5VCiNAI1-h-n-12" value="+ getCards(): List&amp;lt;card&amp;gt;&lt;div&gt;+ shuffle(): void&lt;/div&gt;&lt;div&gt;+ getSize(): int&lt;/div&gt;&lt;div&gt;+setSize(size: int): void&lt;/div&gt;" style="text;strokeColor=none;fillColor=none;align=left;verticalAlign=top;spacingLeft=4;spacingRight=4;overflow=hidden;rotatable=0;points=[[0,0.5],[1,0.5]];portConstraint=eastwest;whiteSpace=wrap;html=1;" vertex="1" parent="uznSG9Nx5VCiNAI1-h-n-9">
          <mxGeometry y="75" width="160" height="81" as="geometry" />
        </mxCell>
        <mxCell id="uznSG9Nx5VCiNAI1-h-n-13" value="Player" style="swimlane;fontStyle=1;align=center;verticalAlign=top;childLayout=stackLayout;horizontal=1;startSize=26;horizontalStack=0;resizeParent=1;resizeParentMax=0;resizeLast=0;collapsible=1;marginBottom=0;whiteSpace=wrap;html=1;" vertex="1" parent="1">
          <mxGeometry x="462" y="135" width="175" height="118" as="geometry" />
        </mxCell>
        <mxCell id="uznSG9Nx5VCiNAI1-h-n-14" value="- name: String" style="text;strokeColor=none;fillColor=none;align=left;verticalAlign=top;spacingLeft=4;spacingRight=4;overflow=hidden;rotatable=0;points=[[0,0.5],[1,0.5]];portConstraint=eastwest;whiteSpace=wrap;html=1;" vertex="1" parent="uznSG9Nx5VCiNAI1-h-n-13">
          <mxGeometry y="26" width="175" height="26" as="geometry" />
        </mxCell>
        <mxCell id="uznSG9Nx5VCiNAI1-h-n-15" value="" style="line;strokeWidth=1;fillColor=none;align=left;verticalAlign=middle;spacingTop=-1;spacingLeft=3;spacingRight=3;rotatable=0;labelPosition=right;points=[];portConstraint=eastwest;strokeColor=inherit;" vertex="1" parent="uznSG9Nx5VCiNAI1-h-n-13">
          <mxGeometry y="52" width="175" height="8" as="geometry" />
        </mxCell>
        <mxCell id="uznSG9Nx5VCiNAI1-h-n-16" value="&lt;div&gt;+ getName(): String&lt;/div&gt;&lt;div&gt;+ setName(name: String): void&lt;/div&gt;&lt;div&gt;+ play(): void&lt;/div&gt;" style="text;strokeColor=none;fillColor=none;align=left;verticalAlign=top;spacingLeft=4;spacingRight=4;overflow=hidden;rotatable=0;points=[[0,0.5],[1,0.5]];portConstraint=eastwest;whiteSpace=wrap;html=1;" vertex="1" parent="uznSG9Nx5VCiNAI1-h-n-13">
          <mxGeometry y="60" width="175" height="58" as="geometry" />
        </mxCell>
        <mxCell id="uznSG9Nx5VCiNAI1-h-n-17" value="Game" style="swimlane;fontStyle=1;align=center;verticalAlign=top;childLayout=stackLayout;horizontal=1;startSize=26;horizontalStack=0;resizeParent=1;resizeParentMax=0;resizeLast=0;collapsible=1;marginBottom=0;whiteSpace=wrap;html=1;" vertex="1" parent="1">
          <mxGeometry x="448" y="305" width="231" height="152" as="geometry" />
        </mxCell>
        <mxCell id="uznSG9Nx5VCiNAI1-h-n-18" value="- name: String&lt;div&gt;- players: List&amp;lt;Player&amp;gt;&lt;/div&gt;" style="text;strokeColor=none;fillColor=none;align=left;verticalAlign=top;spacingLeft=4;spacingRight=4;overflow=hidden;rotatable=0;points=[[0,0.5],[1,0.5]];portConstraint=eastwest;whiteSpace=wrap;html=1;" vertex="1" parent="uznSG9Nx5VCiNAI1-h-n-17">
          <mxGeometry y="26" width="231" height="39" as="geometry" />
        </mxCell>
        <mxCell id="uznSG9Nx5VCiNAI1-h-n-19" value="" style="line;strokeWidth=1;fillColor=none;align=left;verticalAlign=middle;spacingTop=-1;spacingLeft=3;spacingRight=3;rotatable=0;labelPosition=right;points=[];portConstraint=eastwest;strokeColor=inherit;" vertex="1" parent="uznSG9Nx5VCiNAI1-h-n-17">
          <mxGeometry y="65" width="231" height="2" as="geometry" />
        </mxCell>
        <mxCell id="uznSG9Nx5VCiNAI1-h-n-20" value="+ getName(): String&lt;div&gt;+ getPlayers(): List&amp;lt;Player&amp;gt;&lt;/div&gt;&lt;div&gt;+ setPlayers(players: List&amp;lt;Player&amp;gt;): void&lt;/div&gt;&lt;div&gt;+ play(): void&lt;/div&gt;&lt;div&gt;+ declareWinner(): void&lt;/div&gt;" style="text;strokeColor=none;fillColor=none;align=left;verticalAlign=top;spacingLeft=4;spacingRight=4;overflow=hidden;rotatable=0;points=[[0,0.5],[1,0.5]];portConstraint=eastwest;whiteSpace=wrap;html=1;" vertex="1" parent="uznSG9Nx5VCiNAI1-h-n-17">
          <mxGeometry y="67" width="231" height="85" as="geometry" />
        </mxCell>
        <mxCell id="uznSG9Nx5VCiNAI1-h-n-22" value="" style="edgeStyle=entityRelationEdgeStyle;fontSize=12;html=1;endArrow=ERoneToMany;rounded=0;entryX=1;entryY=0.75;entryDx=0;entryDy=0;" edge="1" parent="1" target="uznSG9Nx5VCiNAI1-h-n-13">
          <mxGeometry width="100" height="100" relative="1" as="geometry">
            <mxPoint x="679" y="318" as="sourcePoint" />
            <mxPoint x="466" y="264" as="targetPoint" />
            <Array as="points">
              <mxPoint x="702" y="285" />
              <mxPoint x="704" y="289" />
            </Array>
          </mxGeometry>
        </mxCell>
        <mxCell id="uznSG9Nx5VCiNAI1-h-n-23" value="" style="edgeStyle=entityRelationEdgeStyle;fontSize=12;html=1;endArrow=ERmandOne;startArrow=ERmandOne;rounded=0;exitX=0.999;exitY=0.741;exitDx=0;exitDy=0;exitPerimeter=0;" edge="1" parent="1" source="uznSG9Nx5VCiNAI1-h-n-10">
          <mxGeometry width="100" height="100" relative="1" as="geometry">
            <mxPoint x="362" y="291" as="sourcePoint" />
            <mxPoint x="462" y="191" as="targetPoint" />
          </mxGeometry>
        </mxCell>
        <mxCell id="uznSG9Nx5VCiNAI1-h-n-24" value="" style="edgeStyle=entityRelationEdgeStyle;fontSize=12;html=1;endArrow=ERoneToMany;rounded=0;exitX=0.993;exitY=0.74;exitDx=0;exitDy=0;exitPerimeter=0;" edge="1" parent="1" source="uznSG9Nx5VCiNAI1-h-n-12" target="uznSG9Nx5VCiNAI1-h-n-1">
          <mxGeometry width="100" height="100" relative="1" as="geometry">
            <mxPoint x="151" y="299" as="sourcePoint" />
            <mxPoint x="421" y="245" as="targetPoint" />
          </mxGeometry>
        </mxCell>
      </root>
    </mxGraphModel>
  </diagram>
</mxfile>
